<svg width="97" height="96" viewBox="0 0 97 96" fill="none" xmlns="http://www.w3.org/2000/svg">
<path style="mix-blend-mode:screen" d="M51.8769 36.3342C46.3965 34.5376 40.2658 38.2722 38.1959 44.6702C36.1227 51.0795 38.8851 57.7063 44.3723 59.5082C49.8564 61.2926 55.9812 57.5518 58.0456 51.1608C60.1238 44.7663 57.3586 38.1221 51.8769 36.3342Z" fill="url(#paint0_radial_2068_10678)"/>
<path style="mix-blend-mode:screen" d="M96.2259 40.3515C96.0868 39.4942 72.4919 42.5911 43.5202 47.2817C14.5541 51.9646 17.208 52.7129 4.21554 54.6396C-10.3058 56.7947 15.0713 55.0804 44.0288 50.387C73.0063 45.7032 96.3727 41.2135 96.2259 40.3515Z" fill="url(#paint1_radial_2068_10678)"/>
<path style="mix-blend-mode:screen" d="M92.5061 67.9059C92.8588 67.1122 71.4149 56.7937 44.5985 44.8673C17.791 32.9373 19.6029 35.0159 7.67375 29.5193C-5.66014 23.3775 16.519 35.8283 43.3251 47.7447C70.1426 59.6801 92.1573 68.7077 92.5061 67.9059Z" fill="url(#paint2_radial_2068_10678)"/>
<path style="mix-blend-mode:screen" d="M39.3436 0.000846863C38.491 0.153427 42.1814 23.6681 47.6041 52.5242C53.0106 81.3733 53.6976 78.7104 55.9522 91.6495C58.473 106.119 56.1167 80.8042 50.6982 51.9636C45.2801 23.1014 40.2037 -0.161148 39.3436 0.000846863Z" fill="url(#paint3_radial_2068_10678)"/>
<path style="mix-blend-mode:screen" d="M66.1307 2.67159C65.3272 2.34803 55.9656 24.2322 45.235 51.5624C34.4944 78.878 36.4909 76.9865 31.5293 89.1473C25.9804 102.746 37.4286 80.0453 48.1545 52.7306C58.8922 25.3978 66.9455 2.99109 66.1307 2.67159Z" fill="url(#paint4_radial_2068_10678)"/>
<path style="mix-blend-mode:screen" d="M29.3458 33.3176C29.1093 33.6216 37.3266 40.4057 47.6904 48.4678C58.0632 56.5261 66.6672 62.8129 66.8993 62.5069C67.1453 62.2052 58.9237 55.4273 48.5501 47.3629C38.1889 39.2974 29.5914 33.0096 29.3458 33.3176Z" fill="url(#paint5_radial_2068_10678)"/>
<path style="mix-blend-mode:screen" d="M62.6987 29.2492C62.3946 29.0112 55.6175 37.178 47.5645 47.4784C39.5186 57.7912 33.2412 66.352 33.5479 66.5867C33.8521 66.8317 40.6208 58.6613 48.6778 48.3489C56.7308 38.0484 63.0075 29.4952 62.6987 29.2492Z" fill="url(#paint6_radial_2068_10678)"/>
<path style="mix-blend-mode:screen" d="M45.8562 34.603C43.47 34.99 42.555 41.2759 43.8082 48.6343C45.0563 55.9846 48 61.635 50.3888 61.2305C52.7736 60.8381 53.6929 54.5612 52.437 47.2061C51.1826 39.8494 48.2416 34.1959 45.8562 34.603Z" fill="url(#paint7_radial_2068_10678)"/>
<path style="mix-blend-mode:screen" d="M34.6584 48.9738C34.8485 51.3809 41.0415 52.8548 48.4824 52.2746C55.9157 51.697 61.7942 49.273 61.5852 46.8612C61.3918 44.4517 55.2054 42.9691 47.7688 43.5582C40.3293 44.1435 34.4509 46.5605 34.6584 48.9738Z" fill="url(#paint8_radial_2068_10678)"/>
<path style="mix-blend-mode:screen" d="M43.3495 44.2056C42.6913 45.0517 44.2921 47.4108 46.93 49.4588C49.5691 51.4984 52.2431 52.4712 52.8944 51.6266C53.5553 50.7773 51.9567 48.4296 49.3173 46.376C46.6837 44.3226 44.0138 43.3588 43.3495 44.2056Z" fill="url(#paint9_radial_2068_10678)"/>
<path style="mix-blend-mode:screen" d="M51.585 42.9915C50.6992 42.3717 48.4281 44.0689 46.5189 46.7941C44.6154 49.5195 43.7819 52.2269 44.6603 52.8421C45.5426 53.4661 47.8074 51.7627 49.7223 49.0446C51.6389 46.3238 52.4667 43.6163 51.585 42.9915Z" fill="url(#paint10_radial_2068_10678)"/>
<path style="mix-blend-mode:screen" d="M64.7493 61.1065C72.1152 51.6393 70.3827 37.972 60.8749 30.5744C51.3706 23.1796 37.6932 24.8571 30.3274 34.3243C22.9615 43.7912 24.6976 57.4612 34.2019 64.8561C43.7097 72.2538 57.3836 70.5734 64.7493 61.1065Z" fill="url(#paint11_radial_2068_10678)"/>
<defs>
<radialGradient id="paint0_radial_2068_10678" cx="0" cy="0" r="1" gradientUnits="userSpaceOnUse" gradientTransform="translate(46.0636 54.137) rotate(-72.0813) scale(12.1784 10.4436)">
<stop offset="0.0023" stop-color="#FBB040"/>
<stop offset="0.0546" stop-color="#E09D39"/>
<stop offset="0.1793" stop-color="#A5742A"/>
<stop offset="0.3039" stop-color="#72501D"/>
<stop offset="0.4256" stop-color="#493312"/>
<stop offset="0.5436" stop-color="#291D0A"/>
<stop offset="0.657" stop-color="#120D04"/>
<stop offset="0.7638" stop-color="#040301"/>
<stop offset="0.8571"/>
</radialGradient>
<radialGradient id="paint1_radial_2068_10678" cx="0" cy="0" r="1" gradientUnits="userSpaceOnUse" gradientTransform="translate(47.6487 48.1917) rotate(-9.1863) scale(50.9454 1.50949)">
<stop offset="0.0023" stop-color="#FBB040"/>
<stop offset="0.0546" stop-color="#E09D39"/>
<stop offset="0.1793" stop-color="#A5742A"/>
<stop offset="0.3039" stop-color="#72501D"/>
<stop offset="0.4256" stop-color="#493312"/>
<stop offset="0.5436" stop-color="#291D0A"/>
<stop offset="0.657" stop-color="#120D04"/>
<stop offset="0.7638" stop-color="#040301"/>
<stop offset="0.8571"/>
</radialGradient>
<radialGradient id="paint2_radial_2068_10678" cx="0" cy="0" r="1" gradientUnits="userSpaceOnUse" gradientTransform="translate(47.5562 47.888) rotate(23.9872) scale(50.9454 1.50949)">
<stop offset="0.0023" stop-color="#FBB040"/>
<stop offset="0.0546" stop-color="#E09D39"/>
<stop offset="0.1793" stop-color="#A5742A"/>
<stop offset="0.3039" stop-color="#72501D"/>
<stop offset="0.4256" stop-color="#493312"/>
<stop offset="0.5436" stop-color="#291D0A"/>
<stop offset="0.657" stop-color="#120D04"/>
<stop offset="0.7638" stop-color="#040301"/>
<stop offset="0.8571"/>
</radialGradient>
<radialGradient id="paint3_radial_2068_10678" cx="0" cy="0" r="1" gradientUnits="userSpaceOnUse" gradientTransform="translate(48.3993 47.8777) rotate(-100.629) scale(50.9618 1.50929)">
<stop offset="0.0023" stop-color="#FBB040"/>
<stop offset="0.0546" stop-color="#E09D39"/>
<stop offset="0.1793" stop-color="#A5742A"/>
<stop offset="0.3039" stop-color="#72501D"/>
<stop offset="0.4256" stop-color="#493312"/>
<stop offset="0.5436" stop-color="#291D0A"/>
<stop offset="0.657" stop-color="#120D04"/>
<stop offset="0.7638" stop-color="#040301"/>
<stop offset="0.8571"/>
</radialGradient>
<radialGradient id="paint4_radial_2068_10678" cx="0" cy="0" r="1" gradientUnits="userSpaceOnUse" gradientTransform="translate(48.3766 48.0477) rotate(-68.5496) scale(50.9618 1.50929)">
<stop offset="0.0023" stop-color="#FBB040"/>
<stop offset="0.0546" stop-color="#E09D39"/>
<stop offset="0.1793" stop-color="#A5742A"/>
<stop offset="0.3039" stop-color="#72501D"/>
<stop offset="0.4256" stop-color="#493312"/>
<stop offset="0.5436" stop-color="#291D0A"/>
<stop offset="0.657" stop-color="#120D04"/>
<stop offset="0.7638" stop-color="#040301"/>
<stop offset="0.8571"/>
</radialGradient>
<radialGradient id="paint5_radial_2068_10678" cx="0" cy="0" r="1" gradientUnits="userSpaceOnUse" gradientTransform="translate(48.1261 47.8956) rotate(-142.132) scale(23.7281 0.701506)">
<stop offset="0.0023" stop-color="#FBB040"/>
<stop offset="0.0546" stop-color="#E09D39"/>
<stop offset="0.1793" stop-color="#A5742A"/>
<stop offset="0.3039" stop-color="#72501D"/>
<stop offset="0.4256" stop-color="#493312"/>
<stop offset="0.5436" stop-color="#291D0A"/>
<stop offset="0.657" stop-color="#120D04"/>
<stop offset="0.7638" stop-color="#040301"/>
<stop offset="0.8571"/>
</radialGradient>
<radialGradient id="paint6_radial_2068_10678" cx="0" cy="0" r="1" gradientUnits="userSpaceOnUse" gradientTransform="translate(47.8921 47.6699) rotate(-52.0066) scale(23.7255 0.70585)">
<stop offset="0.0023" stop-color="#FBB040"/>
<stop offset="0.0546" stop-color="#E09D39"/>
<stop offset="0.1793" stop-color="#A5742A"/>
<stop offset="0.3039" stop-color="#72501D"/>
<stop offset="0.4256" stop-color="#493312"/>
<stop offset="0.5436" stop-color="#291D0A"/>
<stop offset="0.657" stop-color="#120D04"/>
<stop offset="0.7638" stop-color="#040301"/>
<stop offset="0.8571"/>
</radialGradient>
<radialGradient id="paint7_radial_2068_10678" cx="0" cy="0" r="1" gradientUnits="userSpaceOnUse" gradientTransform="translate(48.141 48.0488) rotate(-99.6654) scale(13.5053 4.37355)">
<stop offset="0.0023" stop-color="#FBB040"/>
<stop offset="0.0546" stop-color="#E09D39"/>
<stop offset="0.1793" stop-color="#A5742A"/>
<stop offset="0.3039" stop-color="#72501D"/>
<stop offset="0.4256" stop-color="#493312"/>
<stop offset="0.5436" stop-color="#291D0A"/>
<stop offset="0.657" stop-color="#120D04"/>
<stop offset="0.7638" stop-color="#040301"/>
<stop offset="0.8571"/>
</radialGradient>
<radialGradient id="paint8_radial_2068_10678" cx="0" cy="0" r="1" gradientUnits="userSpaceOnUse" gradientTransform="translate(57.5693 47.0805) rotate(175.513) scale(13.5065 4.37258)">
<stop offset="0.0023" stop-color="#FBB040"/>
<stop offset="0.0546" stop-color="#E09D39"/>
<stop offset="0.1793" stop-color="#A5742A"/>
<stop offset="0.3039" stop-color="#72501D"/>
<stop offset="0.4256" stop-color="#493312"/>
<stop offset="0.5436" stop-color="#291D0A"/>
<stop offset="0.657" stop-color="#120D04"/>
<stop offset="0.7638" stop-color="#040301"/>
<stop offset="0.8571"/>
</radialGradient>
<radialGradient id="paint9_radial_2068_10678" cx="0" cy="0" r="1" gradientUnits="userSpaceOnUse" gradientTransform="translate(48.0075 47.8761) rotate(-142.132) scale(6.04594 1.94934)">
<stop offset="0.0023" stop-color="#FBB040"/>
<stop offset="0.0546" stop-color="#E09D39"/>
<stop offset="0.1793" stop-color="#A5742A"/>
<stop offset="0.3039" stop-color="#72501D"/>
<stop offset="0.4256" stop-color="#493312"/>
<stop offset="0.5436" stop-color="#291D0A"/>
<stop offset="0.657" stop-color="#120D04"/>
<stop offset="0.7638" stop-color="#040301"/>
<stop offset="0.8571"/>
</radialGradient>
<radialGradient id="paint10_radial_2068_10678" cx="0" cy="0" r="1" gradientUnits="userSpaceOnUse" gradientTransform="translate(48.3318 47.8106) rotate(-54.9028) scale(6.02196 1.95729)">
<stop offset="0.0023" stop-color="#FBB040"/>
<stop offset="0.0546" stop-color="#E09D39"/>
<stop offset="0.1793" stop-color="#A5742A"/>
<stop offset="0.3039" stop-color="#72501D"/>
<stop offset="0.4256" stop-color="#493312"/>
<stop offset="0.5436" stop-color="#291D0A"/>
<stop offset="0.657" stop-color="#120D04"/>
<stop offset="0.7638" stop-color="#040301"/>
<stop offset="0.8571"/>
</radialGradient>
<radialGradient id="paint11_radial_2068_10678" cx="0" cy="0" r="1" gradientUnits="userSpaceOnUse" gradientTransform="translate(47.7073 47.3089) rotate(37.8855) scale(21.6886)">
<stop offset="0.0023" stop-color="#FBB040"/>
<stop offset="0.0546" stop-color="#E09D39"/>
<stop offset="0.1793" stop-color="#A5742A"/>
<stop offset="0.3039" stop-color="#72501D"/>
<stop offset="0.4256" stop-color="#493312"/>
<stop offset="0.5436" stop-color="#291D0A"/>
<stop offset="0.657" stop-color="#120D04"/>
<stop offset="0.7638" stop-color="#040301"/>
<stop offset="0.8571"/>
</radialGradient>
</defs>
</svg>
