<svg width="375" height="291" viewBox="0 0 375 291" fill="none" xmlns="http://www.w3.org/2000/svg">
<path style="mix-blend-mode:screen" d="M47.8769 146.334C42.3965 144.537 36.2658 148.272 34.1959 154.67C32.1227 161.079 34.8851 167.706 40.3723 169.508C45.8564 171.292 51.9812 167.552 54.0456 161.161C56.1238 154.766 53.3586 148.122 47.8769 146.334Z" fill="url(#paint0_radial_2068_11018)"/>
<path style="mix-blend-mode:screen" d="M92.2259 150.352C92.0868 149.494 68.4919 152.591 39.5202 157.282C10.5541 161.965 13.208 162.713 0.215545 164.64C-14.3058 166.795 11.0713 165.08 40.0288 160.387C69.0063 155.703 92.3727 151.213 92.2259 150.352Z" fill="url(#paint1_radial_2068_11018)"/>
<path style="mix-blend-mode:screen" d="M88.5061 177.906C88.8588 177.112 67.4149 166.794 40.5985 154.868C13.791 142.938 15.6029 145.016 3.67375 139.52C-9.66014 133.378 12.519 145.829 39.3251 157.745C66.1426 169.68 88.1573 178.708 88.5061 177.906Z" fill="url(#paint2_radial_2068_11018)"/>
<path style="mix-blend-mode:screen" d="M35.3436 110.001C34.491 110.153 38.1814 133.668 43.6041 162.524C49.0106 191.373 49.6976 188.71 51.9522 201.649C54.473 216.119 52.1167 190.804 46.6982 161.964C41.2801 133.101 36.2037 109.839 35.3436 110.001Z" fill="url(#paint3_radial_2068_11018)"/>
<path style="mix-blend-mode:screen" d="M62.1307 112.672C61.3272 112.348 51.9656 134.232 41.235 161.562C30.4944 188.878 32.4909 186.987 27.5293 199.147C21.9804 212.746 33.4286 190.045 44.1545 162.731C54.8922 135.398 62.9455 112.991 62.1307 112.672Z" fill="url(#paint4_radial_2068_11018)"/>
<path style="mix-blend-mode:screen" d="M25.3458 143.318C25.1093 143.622 33.3266 150.406 43.6904 158.468C54.0632 166.526 62.6672 172.813 62.8993 172.507C63.1453 172.205 54.9237 165.427 44.5501 157.363C34.1889 149.297 25.5914 143.01 25.3458 143.318Z" fill="url(#paint5_radial_2068_11018)"/>
<path style="mix-blend-mode:screen" d="M58.6987 139.249C58.3946 139.011 51.6175 147.178 43.5645 157.479C35.5186 167.791 29.2412 176.352 29.5479 176.587C29.8521 176.832 36.6208 168.662 44.6778 158.349C52.7308 148.049 59.0075 139.495 58.6987 139.249Z" fill="url(#paint6_radial_2068_11018)"/>
<path style="mix-blend-mode:screen" d="M41.8562 144.603C39.47 144.99 38.555 151.276 39.8082 158.634C41.0563 165.985 44 171.635 46.3888 171.231C48.7736 170.838 49.6929 164.561 48.437 157.206C47.1826 149.849 44.2416 144.196 41.8562 144.603Z" fill="url(#paint7_radial_2068_11018)"/>
<path style="mix-blend-mode:screen" d="M30.6584 158.974C30.8485 161.381 37.0415 162.855 44.4824 162.275C51.9157 161.697 57.7942 159.273 57.5852 156.861C57.3918 154.452 51.2054 152.969 43.7688 153.558C36.3293 154.144 30.4509 156.56 30.6584 158.974Z" fill="url(#paint8_radial_2068_11018)"/>
<path style="mix-blend-mode:screen" d="M39.3495 154.206C38.6913 155.052 40.2921 157.411 42.93 159.459C45.5691 161.498 48.2431 162.471 48.8944 161.627C49.5553 160.777 47.9567 158.43 45.3173 156.376C42.6837 154.323 40.0138 153.359 39.3495 154.206Z" fill="url(#paint9_radial_2068_11018)"/>
<path style="mix-blend-mode:screen" d="M47.585 152.991C46.6992 152.371 44.4281 154.069 42.5189 156.794C40.6154 159.519 39.7819 162.227 40.6603 162.842C41.5426 163.466 43.8074 161.762 45.7223 159.044C47.6389 156.324 48.4667 153.616 47.585 152.991Z" fill="url(#paint10_radial_2068_11018)"/>
<path style="mix-blend-mode:screen" d="M60.7493 171.107C68.1152 161.639 66.3827 147.972 56.8749 140.574C47.3706 133.18 33.6932 134.857 26.3274 144.324C18.9615 153.791 20.6976 167.461 30.2019 174.856C39.7097 182.254 53.3836 180.573 60.7493 171.107Z" fill="url(#paint11_radial_2068_11018)"/>
<path style="mix-blend-mode:screen" d="M249.877 231.334C244.396 229.537 238.266 233.272 236.196 239.67C234.123 246.079 236.885 252.706 242.372 254.508C247.856 256.292 253.981 252.552 256.046 246.161C258.124 239.766 255.359 233.122 249.877 231.334Z" fill="url(#paint12_radial_2068_11018)"/>
<path style="mix-blend-mode:screen" d="M294.226 235.352C294.087 234.494 270.492 237.591 241.52 242.282C212.554 246.965 215.208 247.713 202.216 249.64C187.694 251.795 213.071 250.08 242.029 245.387C271.006 240.703 294.373 236.213 294.226 235.352Z" fill="url(#paint13_radial_2068_11018)"/>
<path style="mix-blend-mode:screen" d="M290.506 262.906C290.859 262.112 269.415 251.794 242.598 239.868C215.791 227.938 217.603 230.016 205.674 224.52C192.34 218.378 214.519 230.829 241.325 242.745C268.143 254.68 290.157 263.708 290.506 262.906Z" fill="url(#paint14_radial_2068_11018)"/>
<path style="mix-blend-mode:screen" d="M237.344 195.001C236.491 195.153 240.181 218.668 245.604 247.524C251.011 276.373 251.698 273.71 253.952 286.649C256.473 301.119 254.117 275.804 248.698 246.964C243.28 218.101 238.204 194.839 237.344 195.001Z" fill="url(#paint15_radial_2068_11018)"/>
<path style="mix-blend-mode:screen" d="M264.131 197.672C263.327 197.348 253.966 219.232 243.235 246.562C232.494 273.878 234.491 271.987 229.529 284.147C223.98 297.746 235.429 275.045 246.154 247.731C256.892 220.398 264.945 197.991 264.131 197.672Z" fill="url(#paint16_radial_2068_11018)"/>
<path style="mix-blend-mode:screen" d="M227.346 228.318C227.109 228.622 235.327 235.406 245.69 243.468C256.063 251.526 264.667 257.813 264.899 257.507C265.145 257.205 256.924 250.427 246.55 242.363C236.189 234.297 227.591 228.01 227.346 228.318Z" fill="url(#paint17_radial_2068_11018)"/>
<path style="mix-blend-mode:screen" d="M260.699 224.249C260.395 224.011 253.618 232.178 245.565 242.479C237.519 252.791 231.241 261.352 231.548 261.587C231.852 261.832 238.621 253.662 246.678 243.349C254.731 233.049 261.007 224.495 260.699 224.249Z" fill="url(#paint18_radial_2068_11018)"/>
<path style="mix-blend-mode:screen" d="M243.856 229.603C241.47 229.99 240.555 236.276 241.808 243.634C243.056 250.985 246 256.635 248.389 256.231C250.774 255.838 251.693 249.561 250.437 242.206C249.183 234.849 246.242 229.196 243.856 229.603Z" fill="url(#paint19_radial_2068_11018)"/>
<path style="mix-blend-mode:screen" d="M232.658 243.974C232.849 246.381 239.042 247.855 246.482 247.275C253.916 246.697 259.794 244.273 259.585 241.861C259.392 239.452 253.205 237.969 245.769 238.558C238.329 239.144 232.451 241.56 232.658 243.974Z" fill="url(#paint20_radial_2068_11018)"/>
<path style="mix-blend-mode:screen" d="M241.35 239.206C240.691 240.052 242.292 242.411 244.93 244.459C247.569 246.498 250.243 247.471 250.894 246.627C251.555 245.777 249.957 243.43 247.317 241.376C244.684 239.323 242.014 238.359 241.35 239.206Z" fill="url(#paint21_radial_2068_11018)"/>
<path style="mix-blend-mode:screen" d="M249.585 237.991C248.699 237.371 246.428 239.069 244.519 241.794C242.615 244.519 241.782 247.227 242.66 247.842C243.543 248.466 245.807 246.762 247.722 244.044C249.639 241.324 250.467 238.616 249.585 237.991Z" fill="url(#paint22_radial_2068_11018)"/>
<path style="mix-blend-mode:screen" d="M262.749 256.107C270.115 246.639 268.383 232.972 258.875 225.574C249.371 218.18 235.693 219.857 228.327 229.324C220.962 238.791 222.698 252.461 232.202 259.856C241.71 267.254 255.384 265.573 262.749 256.107Z" fill="url(#paint23_radial_2068_11018)"/>
<path style="mix-blend-mode:screen" d="M190.308 43.9199C189.113 43.5283 187.777 44.3423 187.326 45.737C186.874 47.1341 187.476 48.5785 188.672 48.9713C189.867 49.3603 191.203 48.5449 191.653 47.1518C192.106 45.7579 191.503 44.3096 190.308 43.9199Z" fill="url(#paint24_radial_2068_11018)"/>
<path style="mix-blend-mode:screen" d="M199.975 44.7957C199.945 44.6088 194.802 45.2839 188.486 46.3064C182.172 47.3271 182.751 47.4902 179.919 47.9102C176.754 48.38 182.285 48.0063 188.597 46.9832C194.914 45.9623 200.007 44.9836 199.975 44.7957Z" fill="url(#paint25_radial_2068_11018)"/>
<path style="mix-blend-mode:screen" d="M199.164 50.8019C199.241 50.6289 194.567 48.3797 188.721 45.78C182.878 43.1795 183.273 43.6326 180.673 42.4345C177.766 41.0957 182.601 43.8097 188.444 46.4072C194.289 49.0089 199.088 50.9767 199.164 50.8019Z" fill="url(#paint26_radial_2068_11018)"/>
<path style="mix-blend-mode:screen" d="M187.576 36.0002C187.39 36.0334 188.195 41.1591 189.377 47.4491C190.555 53.7376 190.705 53.1571 191.196 55.9776C191.746 59.1316 191.232 53.6135 190.051 47.3269C188.87 41.0356 187.763 35.9649 187.576 36.0002Z" fill="url(#paint27_radial_2068_11018)"/>
<path style="mix-blend-mode:screen" d="M193.415 36.5823C193.24 36.5118 191.199 41.282 188.86 47.2394C186.519 53.1936 186.954 52.7813 185.873 55.4321C184.663 58.3964 187.159 53.4481 189.497 47.4941C191.837 41.5361 193.593 36.6519 193.415 36.5823Z" fill="url(#paint28_radial_2068_11018)"/>
<path style="mix-blend-mode:screen" d="M185.397 43.2625C185.345 43.3288 187.136 44.8075 189.395 46.5649C191.656 48.3214 193.532 49.6918 193.582 49.6251C193.636 49.5593 191.844 48.0819 189.583 46.3241C187.324 44.566 185.45 43.1954 185.397 43.2625Z" fill="url(#paint29_radial_2068_11018)"/>
<path style="mix-blend-mode:screen" d="M192.667 42.3757C192.601 42.3238 191.123 44.104 189.368 46.3493C187.614 48.5972 186.246 50.4633 186.313 50.5145C186.379 50.5679 187.854 48.7869 189.611 46.539C191.366 44.2937 192.734 42.4293 192.667 42.3757Z" fill="url(#paint30_radial_2068_11018)"/>
<path style="mix-blend-mode:screen" d="M188.996 43.5429C188.475 43.6273 188.276 44.9974 188.549 46.6014C188.821 48.2036 189.463 49.4353 189.984 49.3471C190.503 49.2616 190.704 47.8933 190.43 46.2901C190.157 44.6865 189.516 43.4541 188.996 43.5429Z" fill="url(#paint31_radial_2068_11018)"/>
<path style="mix-blend-mode:screen" d="M186.555 46.6753C186.596 47.2 187.946 47.5213 189.568 47.3948C191.188 47.2689 192.47 46.7406 192.424 46.2148C192.382 45.6896 191.033 45.3664 189.412 45.4948C187.791 45.6224 186.509 46.1493 186.555 46.6753Z" fill="url(#paint32_radial_2068_11018)"/>
<path style="mix-blend-mode:screen" d="M188.449 45.6358C188.306 45.8203 188.655 46.3345 189.23 46.7809C189.805 47.2255 190.388 47.4375 190.53 47.2534C190.674 47.0683 190.325 46.5566 189.75 46.1089C189.176 45.6613 188.594 45.4512 188.449 45.6358Z" fill="url(#paint33_radial_2068_11018)"/>
<path style="mix-blend-mode:screen" d="M190.244 45.3711C190.051 45.236 189.556 45.6059 189.14 46.2C188.725 46.794 188.543 47.3842 188.735 47.5183C188.927 47.6543 189.421 47.283 189.838 46.6905C190.256 46.0975 190.437 45.5073 190.244 45.3711Z" fill="url(#paint34_radial_2068_11018)"/>
<path style="mix-blend-mode:screen" d="M193.114 49.3198C194.719 47.2562 194.342 44.277 192.269 42.6645C190.198 41.0526 187.216 41.4182 185.611 43.4819C184.005 45.5454 184.383 48.5252 186.455 50.1371C188.528 51.7497 191.508 51.3834 193.114 49.3198Z" fill="url(#paint35_radial_2068_11018)"/>
<path style="mix-blend-mode:screen" d="M332.308 185.92C331.113 185.528 329.777 186.342 329.326 187.737C328.874 189.134 329.476 190.579 330.672 190.971C331.867 191.36 333.203 190.545 333.653 189.152C334.106 187.758 333.503 186.31 332.308 185.92Z" fill="url(#paint36_radial_2068_11018)"/>
<path style="mix-blend-mode:screen" d="M341.975 186.796C341.945 186.609 336.802 187.284 330.486 188.306C324.172 189.327 324.751 189.49 321.919 189.91C318.754 190.38 324.285 190.006 330.597 188.983C336.914 187.962 342.007 186.984 341.975 186.796Z" fill="url(#paint37_radial_2068_11018)"/>
<path style="mix-blend-mode:screen" d="M341.164 192.802C341.241 192.629 336.567 190.38 330.721 187.78C324.878 185.18 325.273 185.633 322.673 184.434C319.766 183.096 324.601 185.81 330.444 188.407C336.289 191.009 341.088 192.977 341.164 192.802Z" fill="url(#paint38_radial_2068_11018)"/>
<path style="mix-blend-mode:screen" d="M329.576 178C329.39 178.033 330.195 183.159 331.377 189.449C332.555 195.738 332.705 195.157 333.196 197.978C333.746 201.132 333.232 195.614 332.051 189.327C330.87 183.036 329.763 177.965 329.576 178Z" fill="url(#paint39_radial_2068_11018)"/>
<path style="mix-blend-mode:screen" d="M335.415 178.582C335.24 178.512 333.199 183.282 330.86 189.239C328.519 195.194 328.954 194.781 327.873 197.432C326.663 200.396 329.159 195.448 331.497 189.494C333.837 183.536 335.593 178.652 335.415 178.582Z" fill="url(#paint40_radial_2068_11018)"/>
<path style="mix-blend-mode:screen" d="M327.397 185.262C327.345 185.329 329.136 186.808 331.395 188.565C333.656 190.321 335.532 191.692 335.582 191.625C335.636 191.559 333.844 190.082 331.583 188.324C329.324 186.566 327.45 185.195 327.397 185.262Z" fill="url(#paint41_radial_2068_11018)"/>
<path style="mix-blend-mode:screen" d="M334.667 184.376C334.601 184.324 333.123 186.104 331.368 188.349C329.614 190.597 328.246 192.463 328.313 192.514C328.379 192.568 329.854 190.787 331.611 188.539C333.366 186.294 334.734 184.429 334.667 184.376Z" fill="url(#paint42_radial_2068_11018)"/>
<path style="mix-blend-mode:screen" d="M330.996 185.543C330.475 185.627 330.276 186.997 330.549 188.601C330.821 190.204 331.463 191.435 331.984 191.347C332.503 191.262 332.704 189.893 332.43 188.29C332.157 186.686 331.516 185.454 330.996 185.543Z" fill="url(#paint43_radial_2068_11018)"/>
<path style="mix-blend-mode:screen" d="M328.555 188.675C328.596 189.2 329.946 189.521 331.568 189.395C333.188 189.269 334.47 188.741 334.424 188.215C334.382 187.69 333.033 187.366 331.412 187.495C329.791 187.622 328.509 188.149 328.555 188.675Z" fill="url(#paint44_radial_2068_11018)"/>
<path style="mix-blend-mode:screen" d="M330.449 187.636C330.306 187.82 330.655 188.334 331.23 188.781C331.805 189.225 332.388 189.438 332.53 189.253C332.674 189.068 332.325 188.557 331.75 188.109C331.176 187.661 330.594 187.451 330.449 187.636Z" fill="url(#paint45_radial_2068_11018)"/>
<path style="mix-blend-mode:screen" d="M332.244 187.371C332.051 187.236 331.556 187.606 331.14 188.2C330.725 188.794 330.543 189.384 330.735 189.518C330.927 189.654 331.421 189.283 331.838 188.691C332.256 188.097 332.437 187.507 332.244 187.371Z" fill="url(#paint46_radial_2068_11018)"/>
<path style="mix-blend-mode:screen" d="M335.114 191.32C336.719 189.256 336.342 186.277 334.269 184.664C332.198 183.053 329.216 183.418 327.611 185.482C326.005 187.545 326.383 190.525 328.455 192.137C330.528 193.75 333.508 193.383 335.114 191.32Z" fill="url(#paint47_radial_2068_11018)"/>
<defs>
<radialGradient id="paint0_radial_2068_11018" cx="0" cy="0" r="1" gradientUnits="userSpaceOnUse" gradientTransform="translate(42.0636 164.137) rotate(-72.0813) scale(12.1784 10.4436)">
<stop offset="0.0023" stop-color="#FBB040"/>
<stop offset="0.0546" stop-color="#E09D39"/>
<stop offset="0.1793" stop-color="#A5742A"/>
<stop offset="0.3039" stop-color="#72501D"/>
<stop offset="0.4256" stop-color="#493312"/>
<stop offset="0.5436" stop-color="#291D0A"/>
<stop offset="0.657" stop-color="#120D04"/>
<stop offset="0.7638" stop-color="#040301"/>
<stop offset="0.8571"/>
</radialGradient>
<radialGradient id="paint1_radial_2068_11018" cx="0" cy="0" r="1" gradientUnits="userSpaceOnUse" gradientTransform="translate(43.6487 158.192) rotate(-9.1863) scale(50.9454 1.50949)">
<stop offset="0.0023" stop-color="#FBB040"/>
<stop offset="0.0546" stop-color="#E09D39"/>
<stop offset="0.1793" stop-color="#A5742A"/>
<stop offset="0.3039" stop-color="#72501D"/>
<stop offset="0.4256" stop-color="#493312"/>
<stop offset="0.5436" stop-color="#291D0A"/>
<stop offset="0.657" stop-color="#120D04"/>
<stop offset="0.7638" stop-color="#040301"/>
<stop offset="0.8571"/>
</radialGradient>
<radialGradient id="paint2_radial_2068_11018" cx="0" cy="0" r="1" gradientUnits="userSpaceOnUse" gradientTransform="translate(43.5562 157.888) rotate(23.9872) scale(50.9454 1.50949)">
<stop offset="0.0023" stop-color="#FBB040"/>
<stop offset="0.0546" stop-color="#E09D39"/>
<stop offset="0.1793" stop-color="#A5742A"/>
<stop offset="0.3039" stop-color="#72501D"/>
<stop offset="0.4256" stop-color="#493312"/>
<stop offset="0.5436" stop-color="#291D0A"/>
<stop offset="0.657" stop-color="#120D04"/>
<stop offset="0.7638" stop-color="#040301"/>
<stop offset="0.8571"/>
</radialGradient>
<radialGradient id="paint3_radial_2068_11018" cx="0" cy="0" r="1" gradientUnits="userSpaceOnUse" gradientTransform="translate(44.3993 157.878) rotate(-100.629) scale(50.9618 1.50929)">
<stop offset="0.0023" stop-color="#FBB040"/>
<stop offset="0.0546" stop-color="#E09D39"/>
<stop offset="0.1793" stop-color="#A5742A"/>
<stop offset="0.3039" stop-color="#72501D"/>
<stop offset="0.4256" stop-color="#493312"/>
<stop offset="0.5436" stop-color="#291D0A"/>
<stop offset="0.657" stop-color="#120D04"/>
<stop offset="0.7638" stop-color="#040301"/>
<stop offset="0.8571"/>
</radialGradient>
<radialGradient id="paint4_radial_2068_11018" cx="0" cy="0" r="1" gradientUnits="userSpaceOnUse" gradientTransform="translate(44.3766 158.048) rotate(-68.5496) scale(50.9618 1.50929)">
<stop offset="0.0023" stop-color="#FBB040"/>
<stop offset="0.0546" stop-color="#E09D39"/>
<stop offset="0.1793" stop-color="#A5742A"/>
<stop offset="0.3039" stop-color="#72501D"/>
<stop offset="0.4256" stop-color="#493312"/>
<stop offset="0.5436" stop-color="#291D0A"/>
<stop offset="0.657" stop-color="#120D04"/>
<stop offset="0.7638" stop-color="#040301"/>
<stop offset="0.8571"/>
</radialGradient>
<radialGradient id="paint5_radial_2068_11018" cx="0" cy="0" r="1" gradientUnits="userSpaceOnUse" gradientTransform="translate(44.1261 157.896) rotate(-142.132) scale(23.7281 0.701506)">
<stop offset="0.0023" stop-color="#FBB040"/>
<stop offset="0.0546" stop-color="#E09D39"/>
<stop offset="0.1793" stop-color="#A5742A"/>
<stop offset="0.3039" stop-color="#72501D"/>
<stop offset="0.4256" stop-color="#493312"/>
<stop offset="0.5436" stop-color="#291D0A"/>
<stop offset="0.657" stop-color="#120D04"/>
<stop offset="0.7638" stop-color="#040301"/>
<stop offset="0.8571"/>
</radialGradient>
<radialGradient id="paint6_radial_2068_11018" cx="0" cy="0" r="1" gradientUnits="userSpaceOnUse" gradientTransform="translate(43.8921 157.67) rotate(-52.0066) scale(23.7255 0.70585)">
<stop offset="0.0023" stop-color="#FBB040"/>
<stop offset="0.0546" stop-color="#E09D39"/>
<stop offset="0.1793" stop-color="#A5742A"/>
<stop offset="0.3039" stop-color="#72501D"/>
<stop offset="0.4256" stop-color="#493312"/>
<stop offset="0.5436" stop-color="#291D0A"/>
<stop offset="0.657" stop-color="#120D04"/>
<stop offset="0.7638" stop-color="#040301"/>
<stop offset="0.8571"/>
</radialGradient>
<radialGradient id="paint7_radial_2068_11018" cx="0" cy="0" r="1" gradientUnits="userSpaceOnUse" gradientTransform="translate(44.141 158.049) rotate(-99.6654) scale(13.5053 4.37355)">
<stop offset="0.0023" stop-color="#FBB040"/>
<stop offset="0.0546" stop-color="#E09D39"/>
<stop offset="0.1793" stop-color="#A5742A"/>
<stop offset="0.3039" stop-color="#72501D"/>
<stop offset="0.4256" stop-color="#493312"/>
<stop offset="0.5436" stop-color="#291D0A"/>
<stop offset="0.657" stop-color="#120D04"/>
<stop offset="0.7638" stop-color="#040301"/>
<stop offset="0.8571"/>
</radialGradient>
<radialGradient id="paint8_radial_2068_11018" cx="0" cy="0" r="1" gradientUnits="userSpaceOnUse" gradientTransform="translate(53.5693 157.081) rotate(175.513) scale(13.5065 4.37258)">
<stop offset="0.0023" stop-color="#FBB040"/>
<stop offset="0.0546" stop-color="#E09D39"/>
<stop offset="0.1793" stop-color="#A5742A"/>
<stop offset="0.3039" stop-color="#72501D"/>
<stop offset="0.4256" stop-color="#493312"/>
<stop offset="0.5436" stop-color="#291D0A"/>
<stop offset="0.657" stop-color="#120D04"/>
<stop offset="0.7638" stop-color="#040301"/>
<stop offset="0.8571"/>
</radialGradient>
<radialGradient id="paint9_radial_2068_11018" cx="0" cy="0" r="1" gradientUnits="userSpaceOnUse" gradientTransform="translate(44.0075 157.876) rotate(-142.132) scale(6.04594 1.94934)">
<stop offset="0.0023" stop-color="#FBB040"/>
<stop offset="0.0546" stop-color="#E09D39"/>
<stop offset="0.1793" stop-color="#A5742A"/>
<stop offset="0.3039" stop-color="#72501D"/>
<stop offset="0.4256" stop-color="#493312"/>
<stop offset="0.5436" stop-color="#291D0A"/>
<stop offset="0.657" stop-color="#120D04"/>
<stop offset="0.7638" stop-color="#040301"/>
<stop offset="0.8571"/>
</radialGradient>
<radialGradient id="paint10_radial_2068_11018" cx="0" cy="0" r="1" gradientUnits="userSpaceOnUse" gradientTransform="translate(44.3318 157.81) rotate(-54.9028) scale(6.02196 1.95729)">
<stop offset="0.0023" stop-color="#FBB040"/>
<stop offset="0.0546" stop-color="#E09D39"/>
<stop offset="0.1793" stop-color="#A5742A"/>
<stop offset="0.3039" stop-color="#72501D"/>
<stop offset="0.4256" stop-color="#493312"/>
<stop offset="0.5436" stop-color="#291D0A"/>
<stop offset="0.657" stop-color="#120D04"/>
<stop offset="0.7638" stop-color="#040301"/>
<stop offset="0.8571"/>
</radialGradient>
<radialGradient id="paint11_radial_2068_11018" cx="0" cy="0" r="1" gradientUnits="userSpaceOnUse" gradientTransform="translate(43.7073 157.309) rotate(37.8855) scale(21.6886)">
<stop offset="0.0023" stop-color="#FBB040"/>
<stop offset="0.0546" stop-color="#E09D39"/>
<stop offset="0.1793" stop-color="#A5742A"/>
<stop offset="0.3039" stop-color="#72501D"/>
<stop offset="0.4256" stop-color="#493312"/>
<stop offset="0.5436" stop-color="#291D0A"/>
<stop offset="0.657" stop-color="#120D04"/>
<stop offset="0.7638" stop-color="#040301"/>
<stop offset="0.8571"/>
</radialGradient>
<radialGradient id="paint12_radial_2068_11018" cx="0" cy="0" r="1" gradientUnits="userSpaceOnUse" gradientTransform="translate(244.064 249.137) rotate(-72.0813) scale(12.1784 10.4436)">
<stop offset="0.0023" stop-color="#FBB040"/>
<stop offset="0.0546" stop-color="#E09D39"/>
<stop offset="0.1793" stop-color="#A5742A"/>
<stop offset="0.3039" stop-color="#72501D"/>
<stop offset="0.4256" stop-color="#493312"/>
<stop offset="0.5436" stop-color="#291D0A"/>
<stop offset="0.657" stop-color="#120D04"/>
<stop offset="0.7638" stop-color="#040301"/>
<stop offset="0.8571"/>
</radialGradient>
<radialGradient id="paint13_radial_2068_11018" cx="0" cy="0" r="1" gradientUnits="userSpaceOnUse" gradientTransform="translate(245.649 243.192) rotate(-9.1863) scale(50.9454 1.50949)">
<stop offset="0.0023" stop-color="#FBB040"/>
<stop offset="0.0546" stop-color="#E09D39"/>
<stop offset="0.1793" stop-color="#A5742A"/>
<stop offset="0.3039" stop-color="#72501D"/>
<stop offset="0.4256" stop-color="#493312"/>
<stop offset="0.5436" stop-color="#291D0A"/>
<stop offset="0.657" stop-color="#120D04"/>
<stop offset="0.7638" stop-color="#040301"/>
<stop offset="0.8571"/>
</radialGradient>
<radialGradient id="paint14_radial_2068_11018" cx="0" cy="0" r="1" gradientUnits="userSpaceOnUse" gradientTransform="translate(245.556 242.888) rotate(23.9872) scale(50.9454 1.50949)">
<stop offset="0.0023" stop-color="#FBB040"/>
<stop offset="0.0546" stop-color="#E09D39"/>
<stop offset="0.1793" stop-color="#A5742A"/>
<stop offset="0.3039" stop-color="#72501D"/>
<stop offset="0.4256" stop-color="#493312"/>
<stop offset="0.5436" stop-color="#291D0A"/>
<stop offset="0.657" stop-color="#120D04"/>
<stop offset="0.7638" stop-color="#040301"/>
<stop offset="0.8571"/>
</radialGradient>
<radialGradient id="paint15_radial_2068_11018" cx="0" cy="0" r="1" gradientUnits="userSpaceOnUse" gradientTransform="translate(246.399 242.878) rotate(-100.629) scale(50.9618 1.50929)">
<stop offset="0.0023" stop-color="#FBB040"/>
<stop offset="0.0546" stop-color="#E09D39"/>
<stop offset="0.1793" stop-color="#A5742A"/>
<stop offset="0.3039" stop-color="#72501D"/>
<stop offset="0.4256" stop-color="#493312"/>
<stop offset="0.5436" stop-color="#291D0A"/>
<stop offset="0.657" stop-color="#120D04"/>
<stop offset="0.7638" stop-color="#040301"/>
<stop offset="0.8571"/>
</radialGradient>
<radialGradient id="paint16_radial_2068_11018" cx="0" cy="0" r="1" gradientUnits="userSpaceOnUse" gradientTransform="translate(246.377 243.048) rotate(-68.5496) scale(50.9618 1.50929)">
<stop offset="0.0023" stop-color="#FBB040"/>
<stop offset="0.0546" stop-color="#E09D39"/>
<stop offset="0.1793" stop-color="#A5742A"/>
<stop offset="0.3039" stop-color="#72501D"/>
<stop offset="0.4256" stop-color="#493312"/>
<stop offset="0.5436" stop-color="#291D0A"/>
<stop offset="0.657" stop-color="#120D04"/>
<stop offset="0.7638" stop-color="#040301"/>
<stop offset="0.8571"/>
</radialGradient>
<radialGradient id="paint17_radial_2068_11018" cx="0" cy="0" r="1" gradientUnits="userSpaceOnUse" gradientTransform="translate(246.126 242.896) rotate(-142.132) scale(23.7281 0.701506)">
<stop offset="0.0023" stop-color="#FBB040"/>
<stop offset="0.0546" stop-color="#E09D39"/>
<stop offset="0.1793" stop-color="#A5742A"/>
<stop offset="0.3039" stop-color="#72501D"/>
<stop offset="0.4256" stop-color="#493312"/>
<stop offset="0.5436" stop-color="#291D0A"/>
<stop offset="0.657" stop-color="#120D04"/>
<stop offset="0.7638" stop-color="#040301"/>
<stop offset="0.8571"/>
</radialGradient>
<radialGradient id="paint18_radial_2068_11018" cx="0" cy="0" r="1" gradientUnits="userSpaceOnUse" gradientTransform="translate(245.892 242.67) rotate(-52.0066) scale(23.7255 0.70585)">
<stop offset="0.0023" stop-color="#FBB040"/>
<stop offset="0.0546" stop-color="#E09D39"/>
<stop offset="0.1793" stop-color="#A5742A"/>
<stop offset="0.3039" stop-color="#72501D"/>
<stop offset="0.4256" stop-color="#493312"/>
<stop offset="0.5436" stop-color="#291D0A"/>
<stop offset="0.657" stop-color="#120D04"/>
<stop offset="0.7638" stop-color="#040301"/>
<stop offset="0.8571"/>
</radialGradient>
<radialGradient id="paint19_radial_2068_11018" cx="0" cy="0" r="1" gradientUnits="userSpaceOnUse" gradientTransform="translate(246.141 243.049) rotate(-99.6654) scale(13.5053 4.37355)">
<stop offset="0.0023" stop-color="#FBB040"/>
<stop offset="0.0546" stop-color="#E09D39"/>
<stop offset="0.1793" stop-color="#A5742A"/>
<stop offset="0.3039" stop-color="#72501D"/>
<stop offset="0.4256" stop-color="#493312"/>
<stop offset="0.5436" stop-color="#291D0A"/>
<stop offset="0.657" stop-color="#120D04"/>
<stop offset="0.7638" stop-color="#040301"/>
<stop offset="0.8571"/>
</radialGradient>
<radialGradient id="paint20_radial_2068_11018" cx="0" cy="0" r="1" gradientUnits="userSpaceOnUse" gradientTransform="translate(255.569 242.081) rotate(175.513) scale(13.5065 4.37258)">
<stop offset="0.0023" stop-color="#FBB040"/>
<stop offset="0.0546" stop-color="#E09D39"/>
<stop offset="0.1793" stop-color="#A5742A"/>
<stop offset="0.3039" stop-color="#72501D"/>
<stop offset="0.4256" stop-color="#493312"/>
<stop offset="0.5436" stop-color="#291D0A"/>
<stop offset="0.657" stop-color="#120D04"/>
<stop offset="0.7638" stop-color="#040301"/>
<stop offset="0.8571"/>
</radialGradient>
<radialGradient id="paint21_radial_2068_11018" cx="0" cy="0" r="1" gradientUnits="userSpaceOnUse" gradientTransform="translate(246.007 242.876) rotate(-142.132) scale(6.04594 1.94934)">
<stop offset="0.0023" stop-color="#FBB040"/>
<stop offset="0.0546" stop-color="#E09D39"/>
<stop offset="0.1793" stop-color="#A5742A"/>
<stop offset="0.3039" stop-color="#72501D"/>
<stop offset="0.4256" stop-color="#493312"/>
<stop offset="0.5436" stop-color="#291D0A"/>
<stop offset="0.657" stop-color="#120D04"/>
<stop offset="0.7638" stop-color="#040301"/>
<stop offset="0.8571"/>
</radialGradient>
<radialGradient id="paint22_radial_2068_11018" cx="0" cy="0" r="1" gradientUnits="userSpaceOnUse" gradientTransform="translate(246.332 242.81) rotate(-54.9028) scale(6.02196 1.95729)">
<stop offset="0.0023" stop-color="#FBB040"/>
<stop offset="0.0546" stop-color="#E09D39"/>
<stop offset="0.1793" stop-color="#A5742A"/>
<stop offset="0.3039" stop-color="#72501D"/>
<stop offset="0.4256" stop-color="#493312"/>
<stop offset="0.5436" stop-color="#291D0A"/>
<stop offset="0.657" stop-color="#120D04"/>
<stop offset="0.7638" stop-color="#040301"/>
<stop offset="0.8571"/>
</radialGradient>
<radialGradient id="paint23_radial_2068_11018" cx="0" cy="0" r="1" gradientUnits="userSpaceOnUse" gradientTransform="translate(245.707 242.309) rotate(37.8855) scale(21.6886)">
<stop offset="0.0023" stop-color="#FBB040"/>
<stop offset="0.0546" stop-color="#E09D39"/>
<stop offset="0.1793" stop-color="#A5742A"/>
<stop offset="0.3039" stop-color="#72501D"/>
<stop offset="0.4256" stop-color="#493312"/>
<stop offset="0.5436" stop-color="#291D0A"/>
<stop offset="0.657" stop-color="#120D04"/>
<stop offset="0.7638" stop-color="#040301"/>
<stop offset="0.8571"/>
</radialGradient>
<radialGradient id="paint24_radial_2068_11018" cx="0" cy="0" r="1" gradientUnits="userSpaceOnUse" gradientTransform="translate(189.041 47.8005) rotate(-72.0813) scale(2.65461 2.27647)">
<stop offset="0.0023" stop-color="#FBB040"/>
<stop offset="0.0546" stop-color="#E09D39"/>
<stop offset="0.1793" stop-color="#A5742A"/>
<stop offset="0.3039" stop-color="#72501D"/>
<stop offset="0.4256" stop-color="#493312"/>
<stop offset="0.5436" stop-color="#291D0A"/>
<stop offset="0.657" stop-color="#120D04"/>
<stop offset="0.7638" stop-color="#040301"/>
<stop offset="0.8571"/>
</radialGradient>
<radialGradient id="paint25_radial_2068_11018" cx="0" cy="0" r="1" gradientUnits="userSpaceOnUse" gradientTransform="translate(189.386 46.5047) rotate(-9.1863) scale(11.105 0.329037)">
<stop offset="0.0023" stop-color="#FBB040"/>
<stop offset="0.0546" stop-color="#E09D39"/>
<stop offset="0.1793" stop-color="#A5742A"/>
<stop offset="0.3039" stop-color="#72501D"/>
<stop offset="0.4256" stop-color="#493312"/>
<stop offset="0.5436" stop-color="#291D0A"/>
<stop offset="0.657" stop-color="#120D04"/>
<stop offset="0.7638" stop-color="#040301"/>
<stop offset="0.8571"/>
</radialGradient>
<radialGradient id="paint26_radial_2068_11018" cx="0" cy="0" r="1" gradientUnits="userSpaceOnUse" gradientTransform="translate(189.366 46.4384) rotate(23.9872) scale(11.105 0.329037)">
<stop offset="0.0023" stop-color="#FBB040"/>
<stop offset="0.0546" stop-color="#E09D39"/>
<stop offset="0.1793" stop-color="#A5742A"/>
<stop offset="0.3039" stop-color="#72501D"/>
<stop offset="0.4256" stop-color="#493312"/>
<stop offset="0.5436" stop-color="#291D0A"/>
<stop offset="0.657" stop-color="#120D04"/>
<stop offset="0.7638" stop-color="#040301"/>
<stop offset="0.8571"/>
</radialGradient>
<radialGradient id="paint27_radial_2068_11018" cx="0" cy="0" r="1" gradientUnits="userSpaceOnUse" gradientTransform="translate(189.55 46.4363) rotate(-100.629) scale(11.1086 0.328993)">
<stop offset="0.0023" stop-color="#FBB040"/>
<stop offset="0.0546" stop-color="#E09D39"/>
<stop offset="0.1793" stop-color="#A5742A"/>
<stop offset="0.3039" stop-color="#72501D"/>
<stop offset="0.4256" stop-color="#493312"/>
<stop offset="0.5436" stop-color="#291D0A"/>
<stop offset="0.657" stop-color="#120D04"/>
<stop offset="0.7638" stop-color="#040301"/>
<stop offset="0.8571"/>
</radialGradient>
<radialGradient id="paint28_radial_2068_11018" cx="0" cy="0" r="1" gradientUnits="userSpaceOnUse" gradientTransform="translate(189.545 46.4733) rotate(-68.5496) scale(11.1086 0.328993)">
<stop offset="0.0023" stop-color="#FBB040"/>
<stop offset="0.0546" stop-color="#E09D39"/>
<stop offset="0.1793" stop-color="#A5742A"/>
<stop offset="0.3039" stop-color="#72501D"/>
<stop offset="0.4256" stop-color="#493312"/>
<stop offset="0.5436" stop-color="#291D0A"/>
<stop offset="0.657" stop-color="#120D04"/>
<stop offset="0.7638" stop-color="#040301"/>
<stop offset="0.8571"/>
</radialGradient>
<radialGradient id="paint29_radial_2068_11018" cx="0" cy="0" r="1" gradientUnits="userSpaceOnUse" gradientTransform="translate(189.49 46.4402) rotate(-142.132) scale(5.17221 0.152913)">
<stop offset="0.0023" stop-color="#FBB040"/>
<stop offset="0.0546" stop-color="#E09D39"/>
<stop offset="0.1793" stop-color="#A5742A"/>
<stop offset="0.3039" stop-color="#72501D"/>
<stop offset="0.4256" stop-color="#493312"/>
<stop offset="0.5436" stop-color="#291D0A"/>
<stop offset="0.657" stop-color="#120D04"/>
<stop offset="0.7638" stop-color="#040301"/>
<stop offset="0.8571"/>
</radialGradient>
<radialGradient id="paint30_radial_2068_11018" cx="0" cy="0" r="1" gradientUnits="userSpaceOnUse" gradientTransform="translate(189.439 46.391) rotate(-52.0066) scale(5.17164 0.15386)">
<stop offset="0.0023" stop-color="#FBB040"/>
<stop offset="0.0546" stop-color="#E09D39"/>
<stop offset="0.1793" stop-color="#A5742A"/>
<stop offset="0.3039" stop-color="#72501D"/>
<stop offset="0.4256" stop-color="#493312"/>
<stop offset="0.5436" stop-color="#291D0A"/>
<stop offset="0.657" stop-color="#120D04"/>
<stop offset="0.7638" stop-color="#040301"/>
<stop offset="0.8571"/>
</radialGradient>
<radialGradient id="paint31_radial_2068_11018" cx="0" cy="0" r="1" gradientUnits="userSpaceOnUse" gradientTransform="translate(189.494 46.4738) rotate(-99.6654) scale(2.94387 0.953339)">
<stop offset="0.0023" stop-color="#FBB040"/>
<stop offset="0.0546" stop-color="#E09D39"/>
<stop offset="0.1793" stop-color="#A5742A"/>
<stop offset="0.3039" stop-color="#72501D"/>
<stop offset="0.4256" stop-color="#493312"/>
<stop offset="0.5436" stop-color="#291D0A"/>
<stop offset="0.657" stop-color="#120D04"/>
<stop offset="0.7638" stop-color="#040301"/>
<stop offset="0.8571"/>
</radialGradient>
<radialGradient id="paint32_radial_2068_11018" cx="0" cy="0" r="1" gradientUnits="userSpaceOnUse" gradientTransform="translate(191.549 46.2626) rotate(175.513) scale(2.94413 0.953127)">
<stop offset="0.0023" stop-color="#FBB040"/>
<stop offset="0.0546" stop-color="#E09D39"/>
<stop offset="0.1793" stop-color="#A5742A"/>
<stop offset="0.3039" stop-color="#72501D"/>
<stop offset="0.4256" stop-color="#493312"/>
<stop offset="0.5436" stop-color="#291D0A"/>
<stop offset="0.657" stop-color="#120D04"/>
<stop offset="0.7638" stop-color="#040301"/>
<stop offset="0.8571"/>
</radialGradient>
<radialGradient id="paint33_radial_2068_11018" cx="0" cy="0" r="1" gradientUnits="userSpaceOnUse" gradientTransform="translate(189.465 46.4359) rotate(-142.132) scale(1.31788 0.424914)">
<stop offset="0.0023" stop-color="#FBB040"/>
<stop offset="0.0546" stop-color="#E09D39"/>
<stop offset="0.1793" stop-color="#A5742A"/>
<stop offset="0.3039" stop-color="#72501D"/>
<stop offset="0.4256" stop-color="#493312"/>
<stop offset="0.5436" stop-color="#291D0A"/>
<stop offset="0.657" stop-color="#120D04"/>
<stop offset="0.7638" stop-color="#040301"/>
<stop offset="0.8571"/>
</radialGradient>
<radialGradient id="paint34_radial_2068_11018" cx="0" cy="0" r="1" gradientUnits="userSpaceOnUse" gradientTransform="translate(189.535 46.4215) rotate(-54.9028) scale(1.31265 0.426646)">
<stop offset="0.0023" stop-color="#FBB040"/>
<stop offset="0.0546" stop-color="#E09D39"/>
<stop offset="0.1793" stop-color="#A5742A"/>
<stop offset="0.3039" stop-color="#72501D"/>
<stop offset="0.4256" stop-color="#493312"/>
<stop offset="0.5436" stop-color="#291D0A"/>
<stop offset="0.657" stop-color="#120D04"/>
<stop offset="0.7638" stop-color="#040301"/>
<stop offset="0.8571"/>
</radialGradient>
<radialGradient id="paint35_radial_2068_11018" cx="0" cy="0" r="1" gradientUnits="userSpaceOnUse" gradientTransform="translate(189.399 46.3122) rotate(37.8855) scale(4.72764)">
<stop offset="0.0023" stop-color="#FBB040"/>
<stop offset="0.0546" stop-color="#E09D39"/>
<stop offset="0.1793" stop-color="#A5742A"/>
<stop offset="0.3039" stop-color="#72501D"/>
<stop offset="0.4256" stop-color="#493312"/>
<stop offset="0.5436" stop-color="#291D0A"/>
<stop offset="0.657" stop-color="#120D04"/>
<stop offset="0.7638" stop-color="#040301"/>
<stop offset="0.8571"/>
</radialGradient>
<radialGradient id="paint36_radial_2068_11018" cx="0" cy="0" r="1" gradientUnits="userSpaceOnUse" gradientTransform="translate(331.041 189.801) rotate(-72.0813) scale(2.65461 2.27647)">
<stop offset="0.0023" stop-color="#FBB040"/>
<stop offset="0.0546" stop-color="#E09D39"/>
<stop offset="0.1793" stop-color="#A5742A"/>
<stop offset="0.3039" stop-color="#72501D"/>
<stop offset="0.4256" stop-color="#493312"/>
<stop offset="0.5436" stop-color="#291D0A"/>
<stop offset="0.657" stop-color="#120D04"/>
<stop offset="0.7638" stop-color="#040301"/>
<stop offset="0.8571"/>
</radialGradient>
<radialGradient id="paint37_radial_2068_11018" cx="0" cy="0" r="1" gradientUnits="userSpaceOnUse" gradientTransform="translate(331.386 188.505) rotate(-9.1863) scale(11.105 0.329037)">
<stop offset="0.0023" stop-color="#FBB040"/>
<stop offset="0.0546" stop-color="#E09D39"/>
<stop offset="0.1793" stop-color="#A5742A"/>
<stop offset="0.3039" stop-color="#72501D"/>
<stop offset="0.4256" stop-color="#493312"/>
<stop offset="0.5436" stop-color="#291D0A"/>
<stop offset="0.657" stop-color="#120D04"/>
<stop offset="0.7638" stop-color="#040301"/>
<stop offset="0.8571"/>
</radialGradient>
<radialGradient id="paint38_radial_2068_11018" cx="0" cy="0" r="1" gradientUnits="userSpaceOnUse" gradientTransform="translate(331.366 188.438) rotate(23.9872) scale(11.105 0.329037)">
<stop offset="0.0023" stop-color="#FBB040"/>
<stop offset="0.0546" stop-color="#E09D39"/>
<stop offset="0.1793" stop-color="#A5742A"/>
<stop offset="0.3039" stop-color="#72501D"/>
<stop offset="0.4256" stop-color="#493312"/>
<stop offset="0.5436" stop-color="#291D0A"/>
<stop offset="0.657" stop-color="#120D04"/>
<stop offset="0.7638" stop-color="#040301"/>
<stop offset="0.8571"/>
</radialGradient>
<radialGradient id="paint39_radial_2068_11018" cx="0" cy="0" r="1" gradientUnits="userSpaceOnUse" gradientTransform="translate(331.55 188.436) rotate(-100.629) scale(11.1086 0.328993)">
<stop offset="0.0023" stop-color="#FBB040"/>
<stop offset="0.0546" stop-color="#E09D39"/>
<stop offset="0.1793" stop-color="#A5742A"/>
<stop offset="0.3039" stop-color="#72501D"/>
<stop offset="0.4256" stop-color="#493312"/>
<stop offset="0.5436" stop-color="#291D0A"/>
<stop offset="0.657" stop-color="#120D04"/>
<stop offset="0.7638" stop-color="#040301"/>
<stop offset="0.8571"/>
</radialGradient>
<radialGradient id="paint40_radial_2068_11018" cx="0" cy="0" r="1" gradientUnits="userSpaceOnUse" gradientTransform="translate(331.545 188.473) rotate(-68.5496) scale(11.1086 0.328993)">
<stop offset="0.0023" stop-color="#FBB040"/>
<stop offset="0.0546" stop-color="#E09D39"/>
<stop offset="0.1793" stop-color="#A5742A"/>
<stop offset="0.3039" stop-color="#72501D"/>
<stop offset="0.4256" stop-color="#493312"/>
<stop offset="0.5436" stop-color="#291D0A"/>
<stop offset="0.657" stop-color="#120D04"/>
<stop offset="0.7638" stop-color="#040301"/>
<stop offset="0.8571"/>
</radialGradient>
<radialGradient id="paint41_radial_2068_11018" cx="0" cy="0" r="1" gradientUnits="userSpaceOnUse" gradientTransform="translate(331.49 188.44) rotate(-142.132) scale(5.17221 0.152913)">
<stop offset="0.0023" stop-color="#FBB040"/>
<stop offset="0.0546" stop-color="#E09D39"/>
<stop offset="0.1793" stop-color="#A5742A"/>
<stop offset="0.3039" stop-color="#72501D"/>
<stop offset="0.4256" stop-color="#493312"/>
<stop offset="0.5436" stop-color="#291D0A"/>
<stop offset="0.657" stop-color="#120D04"/>
<stop offset="0.7638" stop-color="#040301"/>
<stop offset="0.8571"/>
</radialGradient>
<radialGradient id="paint42_radial_2068_11018" cx="0" cy="0" r="1" gradientUnits="userSpaceOnUse" gradientTransform="translate(331.439 188.391) rotate(-52.0066) scale(5.17164 0.15386)">
<stop offset="0.0023" stop-color="#FBB040"/>
<stop offset="0.0546" stop-color="#E09D39"/>
<stop offset="0.1793" stop-color="#A5742A"/>
<stop offset="0.3039" stop-color="#72501D"/>
<stop offset="0.4256" stop-color="#493312"/>
<stop offset="0.5436" stop-color="#291D0A"/>
<stop offset="0.657" stop-color="#120D04"/>
<stop offset="0.7638" stop-color="#040301"/>
<stop offset="0.8571"/>
</radialGradient>
<radialGradient id="paint43_radial_2068_11018" cx="0" cy="0" r="1" gradientUnits="userSpaceOnUse" gradientTransform="translate(331.494 188.474) rotate(-99.6654) scale(2.94387 0.953339)">
<stop offset="0.0023" stop-color="#FBB040"/>
<stop offset="0.0546" stop-color="#E09D39"/>
<stop offset="0.1793" stop-color="#A5742A"/>
<stop offset="0.3039" stop-color="#72501D"/>
<stop offset="0.4256" stop-color="#493312"/>
<stop offset="0.5436" stop-color="#291D0A"/>
<stop offset="0.657" stop-color="#120D04"/>
<stop offset="0.7638" stop-color="#040301"/>
<stop offset="0.8571"/>
</radialGradient>
<radialGradient id="paint44_radial_2068_11018" cx="0" cy="0" r="1" gradientUnits="userSpaceOnUse" gradientTransform="translate(333.549 188.263) rotate(175.513) scale(2.94413 0.953127)">
<stop offset="0.0023" stop-color="#FBB040"/>
<stop offset="0.0546" stop-color="#E09D39"/>
<stop offset="0.1793" stop-color="#A5742A"/>
<stop offset="0.3039" stop-color="#72501D"/>
<stop offset="0.4256" stop-color="#493312"/>
<stop offset="0.5436" stop-color="#291D0A"/>
<stop offset="0.657" stop-color="#120D04"/>
<stop offset="0.7638" stop-color="#040301"/>
<stop offset="0.8571"/>
</radialGradient>
<radialGradient id="paint45_radial_2068_11018" cx="0" cy="0" r="1" gradientUnits="userSpaceOnUse" gradientTransform="translate(331.465 188.436) rotate(-142.132) scale(1.31788 0.424914)">
<stop offset="0.0023" stop-color="#FBB040"/>
<stop offset="0.0546" stop-color="#E09D39"/>
<stop offset="0.1793" stop-color="#A5742A"/>
<stop offset="0.3039" stop-color="#72501D"/>
<stop offset="0.4256" stop-color="#493312"/>
<stop offset="0.5436" stop-color="#291D0A"/>
<stop offset="0.657" stop-color="#120D04"/>
<stop offset="0.7638" stop-color="#040301"/>
<stop offset="0.8571"/>
</radialGradient>
<radialGradient id="paint46_radial_2068_11018" cx="0" cy="0" r="1" gradientUnits="userSpaceOnUse" gradientTransform="translate(331.535 188.422) rotate(-54.9028) scale(1.31265 0.426646)">
<stop offset="0.0023" stop-color="#FBB040"/>
<stop offset="0.0546" stop-color="#E09D39"/>
<stop offset="0.1793" stop-color="#A5742A"/>
<stop offset="0.3039" stop-color="#72501D"/>
<stop offset="0.4256" stop-color="#493312"/>
<stop offset="0.5436" stop-color="#291D0A"/>
<stop offset="0.657" stop-color="#120D04"/>
<stop offset="0.7638" stop-color="#040301"/>
<stop offset="0.8571"/>
</radialGradient>
<radialGradient id="paint47_radial_2068_11018" cx="0" cy="0" r="1" gradientUnits="userSpaceOnUse" gradientTransform="translate(331.399 188.312) rotate(37.8855) scale(4.72764)">
<stop offset="0.0023" stop-color="#FBB040"/>
<stop offset="0.0546" stop-color="#E09D39"/>
<stop offset="0.1793" stop-color="#A5742A"/>
<stop offset="0.3039" stop-color="#72501D"/>
<stop offset="0.4256" stop-color="#493312"/>
<stop offset="0.5436" stop-color="#291D0A"/>
<stop offset="0.657" stop-color="#120D04"/>
<stop offset="0.7638" stop-color="#040301"/>
<stop offset="0.8571"/>
</radialGradient>
</defs>
</svg>
