<svg width="24" height="24" viewBox="0 0 24 24" fill="none" xmlns="http://www.w3.org/2000/svg">
<path d="M5.93832 12.4998C5.76341 12.5581 5.60448 12.6563 5.47411 12.7867C5.34375 12.9171 5.24552 13.076 5.18723 13.2509L3 19.8126L3.17404 19.9866L6.62114 16.5395C6.59664 16.4445 6.56287 16.3529 6.56287 16.2501C6.56287 15.5944 7.09465 15.0626 7.75038 15.0626C8.4061 15.0626 8.93788 15.5944 8.93788 16.2501C8.93788 16.9058 8.4061 17.4376 7.75038 17.4376C7.64758 17.4376 7.55592 17.4038 7.46092 17.3793L4.01383 20.8264L4.1875 21.0001L10.7492 18.8129C10.9241 18.7546 11.0831 18.6564 11.2135 18.526C11.3438 18.3957 11.442 18.2367 11.5003 18.0618L12.7275 14.942L9.05811 11.2726L5.93832 12.4998ZM16.7027 3.05101L9.90755 10.454L13.5387 14.0851L20.9417 7.29001C24.093 4.50421 19.4666 -0.0758328 16.7027 3.05101Z" fill="#D4AF37"/>
</svg>
