<svg width="97" height="96" viewBox="0 0 97 96" fill="none" xmlns="http://www.w3.org/2000/svg">
<path style="mix-blend-mode:screen" d="M49.3079 43.9199C48.1133 43.5283 46.7769 44.3423 46.3257 45.737C45.8738 47.1341 46.476 48.5785 47.6721 48.9713C48.8675 49.3603 50.2025 48.5449 50.6525 47.1518C51.1055 45.7579 50.5028 44.3096 49.3079 43.9199Z" fill="url(#paint0_radial_2068_10677)"/>
<path style="mix-blend-mode:screen" d="M58.9751 44.7957C58.9448 44.6088 53.8016 45.2839 47.4864 46.3064C41.1725 47.3271 41.751 47.4902 38.9189 47.9102C35.7536 48.38 41.2852 48.0063 47.5973 46.9832C53.9138 45.9623 59.0071 44.9836 58.9751 44.7957Z" fill="url(#paint1_radial_2068_10677)"/>
<path style="mix-blend-mode:screen" d="M58.1642 50.8019C58.2411 50.6289 53.5668 48.3797 47.7214 45.78C41.878 43.1795 42.2729 43.6326 39.6726 42.4345C36.7661 41.0957 41.6007 43.8097 47.4438 46.4072C53.2895 49.0089 58.0882 50.9767 58.1642 50.8019Z" fill="url(#paint2_radial_2068_10677)"/>
<path style="mix-blend-mode:screen" d="M46.576 36.0002C46.3901 36.0334 47.1946 41.1591 48.3766 47.4491C49.5551 53.7376 49.7049 53.1571 50.1963 55.9776C50.7458 59.1316 50.2322 53.6135 49.0511 47.3269C47.87 41.0356 46.7635 35.9649 46.576 36.0002Z" fill="url(#paint3_radial_2068_10677)"/>
<path style="mix-blend-mode:screen" d="M52.4151 36.5825C52.2399 36.512 50.1993 41.2823 47.8603 47.2397C45.5191 53.1939 45.9542 52.7816 44.8727 55.4324C43.6632 58.3967 46.1586 53.4483 48.4966 47.4943C50.8372 41.5363 52.5927 36.6522 52.4151 36.5825Z" fill="url(#paint4_radial_2068_10677)"/>
<path style="mix-blend-mode:screen" d="M44.3966 43.2625C44.345 43.3288 46.1362 44.8075 48.3953 46.5649C50.6564 48.3214 52.5318 49.6918 52.5824 49.6251C52.6361 49.5593 50.8439 48.0819 48.5827 46.3241C46.3242 44.566 44.4501 43.1954 44.3966 43.2625Z" fill="url(#paint5_radial_2068_10677)"/>
<path style="mix-blend-mode:screen" d="M51.6669 42.3757C51.6006 42.3238 50.1234 44.104 48.368 46.3493C46.6141 48.5972 45.2458 50.4633 45.3127 50.5145C45.379 50.5679 46.8544 48.7869 48.6106 46.539C50.366 44.2937 51.7342 42.4293 51.6669 42.3757Z" fill="url(#paint6_radial_2068_10677)"/>
<path style="mix-blend-mode:screen" d="M47.9955 43.5429C47.4754 43.6273 47.276 44.9974 47.5491 46.6014C47.8212 48.2036 48.4628 49.4353 48.9836 49.3471C49.5034 49.2616 49.7038 47.8933 49.43 46.2901C49.1566 44.6865 48.5155 43.4541 47.9955 43.5429Z" fill="url(#paint7_radial_2068_10677)"/>
<path style="mix-blend-mode:screen" d="M45.5546 46.6751C45.5961 47.1998 46.946 47.5211 48.568 47.3946C50.1883 47.2687 51.4696 46.7403 51.4241 46.2146C51.3819 45.6894 50.0334 45.3662 48.4124 45.4946C46.7908 45.6222 45.5094 46.149 45.5546 46.6751Z" fill="url(#paint8_radial_2068_10677)"/>
<path style="mix-blend-mode:screen" d="M47.4492 45.6358C47.3057 45.8203 47.6547 46.3345 48.2297 46.7809C48.805 47.2255 49.3878 47.4375 49.5298 47.2534C49.6739 47.0683 49.3254 46.5566 48.7501 46.1089C48.176 45.6613 47.594 45.4512 47.4492 45.6358Z" fill="url(#paint9_radial_2068_10677)"/>
<path style="mix-blend-mode:screen" d="M49.2444 45.3713C49.0513 45.2362 48.5562 45.6062 48.1401 46.2002C47.7251 46.7943 47.5435 47.3844 47.7349 47.5185C47.9273 47.6546 48.4209 47.2833 48.8383 46.6908C49.2561 46.0977 49.4366 45.5075 49.2444 45.3713Z" fill="url(#paint10_radial_2068_10677)"/>
<path style="mix-blend-mode:screen" d="M52.1139 49.3198C53.7195 47.2562 53.3418 44.277 51.2693 42.6645C49.1976 41.0526 46.2162 41.4182 44.6106 43.4819C43.0051 45.5454 43.3835 48.5252 45.4552 50.1371C47.5277 51.7497 50.5083 51.3834 52.1139 49.3198Z" fill="url(#paint11_radial_2068_10677)"/>
<defs>
<radialGradient id="paint0_radial_2068_10677" cx="0" cy="0" r="1" gradientUnits="userSpaceOnUse" gradientTransform="translate(48.0407 47.8005) rotate(-72.0813) scale(2.65461 2.27647)">
<stop offset="0.0023" stop-color="#FBB040"/>
<stop offset="0.0546" stop-color="#E09D39"/>
<stop offset="0.1793" stop-color="#A5742A"/>
<stop offset="0.3039" stop-color="#72501D"/>
<stop offset="0.4256" stop-color="#493312"/>
<stop offset="0.5436" stop-color="#291D0A"/>
<stop offset="0.657" stop-color="#120D04"/>
<stop offset="0.7638" stop-color="#040301"/>
<stop offset="0.8571"/>
</radialGradient>
<radialGradient id="paint1_radial_2068_10677" cx="0" cy="0" r="1" gradientUnits="userSpaceOnUse" gradientTransform="translate(48.3864 46.5047) rotate(-9.1863) scale(11.105 0.329037)">
<stop offset="0.0023" stop-color="#FBB040"/>
<stop offset="0.0546" stop-color="#E09D39"/>
<stop offset="0.1793" stop-color="#A5742A"/>
<stop offset="0.3039" stop-color="#72501D"/>
<stop offset="0.4256" stop-color="#493312"/>
<stop offset="0.5436" stop-color="#291D0A"/>
<stop offset="0.657" stop-color="#120D04"/>
<stop offset="0.7638" stop-color="#040301"/>
<stop offset="0.8571"/>
</radialGradient>
<radialGradient id="paint2_radial_2068_10677" cx="0" cy="0" r="1" gradientUnits="userSpaceOnUse" gradientTransform="translate(48.3661 46.4384) rotate(23.9872) scale(11.105 0.329037)">
<stop offset="0.0023" stop-color="#FBB040"/>
<stop offset="0.0546" stop-color="#E09D39"/>
<stop offset="0.1793" stop-color="#A5742A"/>
<stop offset="0.3039" stop-color="#72501D"/>
<stop offset="0.4256" stop-color="#493312"/>
<stop offset="0.5436" stop-color="#291D0A"/>
<stop offset="0.657" stop-color="#120D04"/>
<stop offset="0.7638" stop-color="#040301"/>
<stop offset="0.8571"/>
</radialGradient>
<radialGradient id="paint3_radial_2068_10677" cx="0" cy="0" r="1" gradientUnits="userSpaceOnUse" gradientTransform="translate(48.5499 46.4363) rotate(-100.629) scale(11.1086 0.328993)">
<stop offset="0.0023" stop-color="#FBB040"/>
<stop offset="0.0546" stop-color="#E09D39"/>
<stop offset="0.1793" stop-color="#A5742A"/>
<stop offset="0.3039" stop-color="#72501D"/>
<stop offset="0.4256" stop-color="#493312"/>
<stop offset="0.5436" stop-color="#291D0A"/>
<stop offset="0.657" stop-color="#120D04"/>
<stop offset="0.7638" stop-color="#040301"/>
<stop offset="0.8571"/>
</radialGradient>
<radialGradient id="paint4_radial_2068_10677" cx="0" cy="0" r="1" gradientUnits="userSpaceOnUse" gradientTransform="translate(48.5451 46.4735) rotate(-68.5496) scale(11.1086 0.328993)">
<stop offset="0.0023" stop-color="#FBB040"/>
<stop offset="0.0546" stop-color="#E09D39"/>
<stop offset="0.1793" stop-color="#A5742A"/>
<stop offset="0.3039" stop-color="#72501D"/>
<stop offset="0.4256" stop-color="#493312"/>
<stop offset="0.5436" stop-color="#291D0A"/>
<stop offset="0.657" stop-color="#120D04"/>
<stop offset="0.7638" stop-color="#040301"/>
<stop offset="0.8571"/>
</radialGradient>
<radialGradient id="paint5_radial_2068_10677" cx="0" cy="0" r="1" gradientUnits="userSpaceOnUse" gradientTransform="translate(48.4903 46.4402) rotate(-142.132) scale(5.17221 0.152913)">
<stop offset="0.0023" stop-color="#FBB040"/>
<stop offset="0.0546" stop-color="#E09D39"/>
<stop offset="0.1793" stop-color="#A5742A"/>
<stop offset="0.3039" stop-color="#72501D"/>
<stop offset="0.4256" stop-color="#493312"/>
<stop offset="0.5436" stop-color="#291D0A"/>
<stop offset="0.657" stop-color="#120D04"/>
<stop offset="0.7638" stop-color="#040301"/>
<stop offset="0.8571"/>
</radialGradient>
<radialGradient id="paint6_radial_2068_10677" cx="0" cy="0" r="1" gradientUnits="userSpaceOnUse" gradientTransform="translate(48.4394 46.391) rotate(-52.0066) scale(5.17164 0.15386)">
<stop offset="0.0023" stop-color="#FBB040"/>
<stop offset="0.0546" stop-color="#E09D39"/>
<stop offset="0.1793" stop-color="#A5742A"/>
<stop offset="0.3039" stop-color="#72501D"/>
<stop offset="0.4256" stop-color="#493312"/>
<stop offset="0.5436" stop-color="#291D0A"/>
<stop offset="0.657" stop-color="#120D04"/>
<stop offset="0.7638" stop-color="#040301"/>
<stop offset="0.8571"/>
</radialGradient>
<radialGradient id="paint7_radial_2068_10677" cx="0" cy="0" r="1" gradientUnits="userSpaceOnUse" gradientTransform="translate(48.4936 46.4738) rotate(-99.6654) scale(2.94387 0.953339)">
<stop offset="0.0023" stop-color="#FBB040"/>
<stop offset="0.0546" stop-color="#E09D39"/>
<stop offset="0.1793" stop-color="#A5742A"/>
<stop offset="0.3039" stop-color="#72501D"/>
<stop offset="0.4256" stop-color="#493312"/>
<stop offset="0.5436" stop-color="#291D0A"/>
<stop offset="0.657" stop-color="#120D04"/>
<stop offset="0.7638" stop-color="#040301"/>
<stop offset="0.8571"/>
</radialGradient>
<radialGradient id="paint8_radial_2068_10677" cx="0" cy="0" r="1" gradientUnits="userSpaceOnUse" gradientTransform="translate(50.5487 46.2624) rotate(175.513) scale(2.94413 0.953127)">
<stop offset="0.0023" stop-color="#FBB040"/>
<stop offset="0.0546" stop-color="#E09D39"/>
<stop offset="0.1793" stop-color="#A5742A"/>
<stop offset="0.3039" stop-color="#72501D"/>
<stop offset="0.4256" stop-color="#493312"/>
<stop offset="0.5436" stop-color="#291D0A"/>
<stop offset="0.657" stop-color="#120D04"/>
<stop offset="0.7638" stop-color="#040301"/>
<stop offset="0.8571"/>
</radialGradient>
<radialGradient id="paint9_radial_2068_10677" cx="0" cy="0" r="1" gradientUnits="userSpaceOnUse" gradientTransform="translate(48.4646 46.4359) rotate(-142.132) scale(1.31788 0.424914)">
<stop offset="0.0023" stop-color="#FBB040"/>
<stop offset="0.0546" stop-color="#E09D39"/>
<stop offset="0.1793" stop-color="#A5742A"/>
<stop offset="0.3039" stop-color="#72501D"/>
<stop offset="0.4256" stop-color="#493312"/>
<stop offset="0.5436" stop-color="#291D0A"/>
<stop offset="0.657" stop-color="#120D04"/>
<stop offset="0.7638" stop-color="#040301"/>
<stop offset="0.8571"/>
</radialGradient>
<radialGradient id="paint10_radial_2068_10677" cx="0" cy="0" r="1" gradientUnits="userSpaceOnUse" gradientTransform="translate(48.5352 46.4218) rotate(-54.9028) scale(1.31265 0.426646)">
<stop offset="0.0023" stop-color="#FBB040"/>
<stop offset="0.0546" stop-color="#E09D39"/>
<stop offset="0.1793" stop-color="#A5742A"/>
<stop offset="0.3039" stop-color="#72501D"/>
<stop offset="0.4256" stop-color="#493312"/>
<stop offset="0.5436" stop-color="#291D0A"/>
<stop offset="0.657" stop-color="#120D04"/>
<stop offset="0.7638" stop-color="#040301"/>
<stop offset="0.8571"/>
</radialGradient>
<radialGradient id="paint11_radial_2068_10677" cx="0" cy="0" r="1" gradientUnits="userSpaceOnUse" gradientTransform="translate(48.3991 46.3122) rotate(37.8855) scale(4.72764)">
<stop offset="0.0023" stop-color="#FBB040"/>
<stop offset="0.0546" stop-color="#E09D39"/>
<stop offset="0.1793" stop-color="#A5742A"/>
<stop offset="0.3039" stop-color="#72501D"/>
<stop offset="0.4256" stop-color="#493312"/>
<stop offset="0.5436" stop-color="#291D0A"/>
<stop offset="0.657" stop-color="#120D04"/>
<stop offset="0.7638" stop-color="#040301"/>
<stop offset="0.8571"/>
</radialGradient>
</defs>
</svg>
