<svg width="37" height="36" viewBox="0 0 37 36" fill="none" xmlns="http://www.w3.org/2000/svg">
<g clip-path="url(#clip0_2173_4530)">
<path d="M18.5 0C13.7272 0 9.14563 1.89759 5.77344 5.27203C2.3978 8.64783 0.500966 13.226 0.5 18C0.5 22.772 2.39844 27.3535 5.77344 30.728C9.14563 34.1024 13.7272 36 18.5 36C23.2728 36 27.8544 34.1024 31.2266 30.728C34.6016 27.3535 36.5 22.772 36.5 18C36.5 13.228 34.6016 8.64647 31.2266 5.27203C27.8544 1.89759 23.2728 0 18.5 0Z" fill="url(#paint0_linear_2173_4530)"/>
<path d="M8.64789 17.8091C13.896 15.5231 17.3948 14.016 19.1441 13.2877C24.1448 11.2084 25.1826 10.8473 25.8604 10.8351C26.0094 10.8327 26.3413 10.8695 26.5579 11.0446C26.7379 11.1923 26.7885 11.3919 26.8138 11.5321C26.8363 11.6722 26.8673 11.9914 26.8419 12.2406C26.572 15.0869 25.3991 21.9938 24.8029 25.1818C24.5526 26.5306 24.0548 26.9829 23.5738 27.0271C22.5276 27.1232 21.7345 26.3363 20.722 25.6728C19.1385 24.6342 18.2441 23.9879 16.7057 22.9745C14.9282 21.8034 16.0813 21.1596 17.0938 20.1077C17.3582 19.8324 21.9651 15.6432 22.0523 15.2632C22.0635 15.2157 22.0748 15.0385 21.9679 14.9451C21.8638 14.8515 21.7091 14.8835 21.5966 14.9088C21.4363 14.9448 18.9079 16.6177 14.0029 19.9272C13.2857 20.4205 12.636 20.661 12.051 20.6483C11.4098 20.6345 10.1723 20.2849 9.25258 19.9862C8.12758 19.6198 7.23039 19.426 7.30914 18.8036C7.34851 18.4796 7.7957 18.148 8.64789 17.8091Z" fill="white"/>
</g>
<defs>
<linearGradient id="paint0_linear_2173_4530" x1="1800.5" y1="0" x2="1800.5" y2="3600" gradientUnits="userSpaceOnUse">
<stop stop-color="#2AABEE"/>
<stop offset="1" stop-color="#229ED9"/>
</linearGradient>
<clipPath id="clip0_2173_4530">
<rect width="36" height="36" fill="white" transform="translate(0.5)"/>
</clipPath>
</defs>
</svg>
