<svg width="24" height="24" viewBox="0 0 24 24" fill="none" xmlns="http://www.w3.org/2000/svg">
<path d="M17.3571 14.0775L21.1671 10.801C21.8081 10.2505 21.4671 9.19997 20.6246 9.13097L15.6166 8.72047C15.4427 8.70634 15.276 8.64461 15.1349 8.54203C14.9938 8.43946 14.8837 8.30001 14.8166 8.13897L12.8781 3.50297C12.5521 2.72297 11.4481 2.72297 11.1221 3.50297L9.18357 8.13897C9.11647 8.30001 9.00632 8.43946 8.8652 8.54203C8.72409 8.64461 8.55745 8.70634 8.38357 8.72047L3.37507 9.13097C2.53307 9.19997 2.19207 10.2505 2.83257 10.801L5.14657 12.791C5.35992 12.9748 5.60886 13.1127 5.87786 13.196C6.14686 13.2794 6.43015 13.3064 6.71007 13.2755L11.8911 12.708C12.3171 12.6615 12.4936 13.238 12.1146 13.438L7.46407 15.893C7.20449 16.0297 6.97728 16.2205 6.79778 16.4525C6.61828 16.6845 6.49066 16.9524 6.42357 17.238L5.79157 19.908C5.59707 20.73 6.49057 21.3795 7.21207 20.9405L11.5056 18.329C11.8091 18.144 12.1906 18.144 12.4946 18.329L16.7876 20.9405C17.5096 21.3795 18.4026 20.7305 18.2086 19.908L17.0516 15.018C17.0112 14.8483 17.0184 14.6707 17.0723 14.5048C17.1262 14.3389 17.2247 14.1911 17.3571 14.0775Z" fill="#D4AF37"/>
</svg>
